<svg width="24" height="24" viewBox="0 0 24 24" fill="none" xmlns="http://www.w3.org/2000/svg">
<g clip-path="url(#clip0_304_23488)">
<path d="M18.9999 16.8993C20.2151 16.6526 21.2952 15.9631 22.0306 14.9648C22.766 13.9665 23.1043 12.7305 22.9796 11.4968C22.855 10.2632 22.2765 9.11979 21.3563 8.2887C20.4361 7.4576 19.2399 6.99808 17.9999 6.99932H16.7399C16.4086 5.71664 15.764 4.53631 14.8638 3.56431C13.9637 2.5923 12.8363 1.85905 11.5828 1.43039C10.3292 1.00172 8.98891 0.891055 7.68207 1.10833C6.37523 1.32561 5.1428 1.86402 4.09544 2.67523C3.04808 3.48644 2.21856 4.54506 1.68137 5.75603C1.14418 6.96701 0.916124 8.29243 1.01769 9.61331C1.11925 10.9342 1.54725 12.2092 2.26326 13.3238C2.97926 14.4384 3.96087 15.3578 5.11993 15.9993M12.9999 10.9993L8.99993 16.9993H14.9999L10.9999 22.9993" stroke="currentColor" stroke-width="2" stroke-linecap="round" stroke-linejoin="round"/>
</g>
<defs>
<clipPath id="clip0_304_23488">
<rect width="24" height="24" fill="white"/>
</clipPath>
</defs>
</svg>
