<svg width="484.24999999999994" height="115.248983862448" viewBox="0 0 403.37015079876426 96" class="looka-1j8o68f"><defs id="SvgjsDefs2958"></defs><g id="SvgjsG2959" featurekey="symbolGroupContainer" transform="matrix(1,0,0,1,0,0)" fill="#3d84a8"><rect width="88" height="96" rx="8"></rect></g><g id="SvgjsG2960" featurekey="symbolFeature-0" transform="matrix(1.4986024361484052,0,0,1.4986024361484052,-3.9776389783744825,3.0111805108127587)" fill="#ffffff"><title xmlns="http://www.w3.org/2000/svg">learning-learn-knowledge-education-balloon</title><g xmlns="http://www.w3.org/2000/svg"><path d="M43,35V49h-.754A19.95,19.95,0,0,0,33,51.273V40h1a3,3,0,0,0,3-3V35.345A17.974,17.974,0,0,1,40.471,35ZM29,36h6v1a1,1,0,0,1-1,1H30a1,1,0,0,1-1-1Zm3.015-8.135L34.055,31h-4.1Zm-1.183-5.478a1.487,1.487,0,0,1-.1-1.668A1.45,1.45,0,0,1,32,20a1.469,1.469,0,0,1,1.292.759,1.5,1.5,0,0,1-.108,1.682l-1.163,1.772ZM24,22.441V22a8,8,0,1,1,16,0,11.4,11.4,0,0,1-3.849,8.553l-2.939-4.513,1.613-2.458a3.487,3.487,0,0,0,.158-3.895,3.478,3.478,0,1,0-5.778,3.857l1.62,2.49-3.156,4.807A11.489,11.489,0,0,1,24,22.441ZM29,33h6v1H29V33Zm-8,2h2.529A17.974,17.974,0,0,1,27,35.345V37a3,3,0,0,0,3,3h1V51.273A19.95,19.95,0,0,0,21.754,49H21Zm-4,2h2V50a1,1,0,0,0,1,1h1.754a17.95,17.95,0,0,1,5.9,1H17ZM47,52H36.344a17.95,17.95,0,0,1,5.9-1H44a1,1,0,0,0,1-1V36.189l2-.125Z"></path><rect x="31" y="8" width="2" height="2"></rect><rect x="20.394" y="12.394" width="2" height="2" transform="translate(-3.205 19.05) rotate(-45)"></rect><rect x="16" y="23" width="2" height="2"></rect><rect x="46" y="23" width="2" height="2"></rect><rect x="41.607" y="12.394" width="2" height="2" transform="translate(3.008 34.05) rotate(-45)"></rect></g></g><g id="SvgjsG2961" featurekey="nameLeftFeature-0" transform="matrix(0.9024399574334833,0,0,0.9024399574334833,106.185377495251,26.214965064567018)" fill="#3d84a8"><path d="M7.44 32.76 c0 -1.4 -0.2 -5.2 -0.16 -6 c0 -0.12 0.08 -0.28 0.12 -0.28 c0.08 0 0.24 0.08 0.28 0.12 c1.28 1.68 7.28 13.32 8 13.36 c0.2 0.04 0.4 0.04 0.6 0.04 c1.36 -0.08 2.56 0 3.92 0 c1.4 0 0.48 -1.36 0.24 -1.72 c-0.36 -0.52 -5.12 -9.04 -5.4 -9.56 c-0.8 -1.36 -1.48 -2.84 -2.28 -4.16 c-0.08 -0.16 -0.16 -0.4 -0.12 -0.56 c0.08 -0.48 0.2 -0.92 0.4 -1.36 c0.96 -1.88 1.96 -3.8 3.12 -5.6 c1.28 -2.04 2 -3.32 3.04 -5.16 c0.24 -0.44 0.4 -0.92 0.56 -1.44 c0.04 -0.2 -0.12 -0.4 -0.36 -0.4 c-0.76 -0.04 -3.52 0 -4.4 0 c-0.4 0 -0.8 0.08 -1 0.44 c-0.52 1 -5.88 10.8 -6.4 11.68 c-0.04 0.08 -0.16 0.12 -0.28 0.12 c0 0 -0.08 -0.12 -0.08 -0.2 c-0.04 -2.24 0.36 -9.56 0.28 -11.04 c-0.04 -0.88 -0.2 -0.96 -1.08 -1 c-0.96 -0.04 -2.28 -0.04 -3.24 -0.04 c-0.88 0 -0.96 0.48 -1.08 1.12 c-0.04 0.12 -0.04 3.88 -0.04 5.56 c0 2.44 -0.2 17.72 0.08 22.56 c0 0.48 0.12 0.76 0.52 0.76 c1.08 -0.08 2.68 0 3.76 0 c0.76 0 0.88 -0.08 0.88 -1.36 c0 -1.72 0.16 -3.28 0.16 -5.4 c0 -0.16 -0.04 -0.32 -0.04 -0.48 z M25 31.8 l-0.04 0 c0 1 -0.04 2.04 0 3.08 c0.04 1.28 0.12 2.56 0.2 3.84 c0 0.44 0.12 0.56 0.52 0.64 c0.84 0.2 1.64 0.24 2.48 0.24 c2.16 -0.08 4.32 0.08 6.48 0 c0.88 -0.04 1.28 0.04 2.16 -0.12 c0.8 -0.16 1.08 -0.6 1.08 -1.8 c-0.08 -0.76 -0.04 -1.08 -0.04 -2 c0 -1.32 -0.92 -1.76 -1.72 -1.72 c-0.56 0.04 -3.24 -0.04 -4.32 -0.04 c-1.8 0.04 -1.52 0.28 -1.52 -1.6 c0 -1.52 0.04 -3.48 0.04 -5.04 c0 -0.84 0.08 -1.12 0.88 -1.12 l5 0 c0.8 0.12 1.36 -0.44 1.36 -1.28 s0.08 -0.88 0.08 -1.72 l-0.12 -1.2 c-0.08 -0.68 -0.32 -0.92 -1 -0.92 c-0.44 0 -0.88 0.04 -1.32 0.08 c-1.72 0.12 -2.52 -0.12 -4.2 0 c-0.56 0 -0.64 -0.08 -0.68 -0.6 c-0.16 -1.56 0 -3.28 0.16 -4.84 c0.04 -0.64 0.2 -0.76 0.8 -0.8 l5.64 -0.04 c0.76 -0.08 1 -0.04 0.96 -0.8 c-0.08 -1.16 0.04 -2.36 -0.08 -3.52 c-0.08 -0.64 -0.28 -0.76 -1 -0.76 c-1.2 0.04 -1.48 0.04 -2.68 0.12 c-1.2 0.04 -6 0.04 -7.16 0.04 c-1.68 0 -1.8 -0.12 -1.84 1.92 c-0.08 1.6 -0.04 3.24 -0.04 4.88 c0 2.8 -0.16 12.84 -0.08 15.08 z M58.92 10.920000000000002 c0.12 0.56 0.04 27.2 0.04 27.88 c0 1.2 -0.44 1.16 -1.24 1.16 c-1.2 0 -2.88 0.2 -3.24 -0.2 c-0.32 -0.28 -6.24 -14.56 -7.08 -16.36 c-0.08 -0.16 -0.28 -0.56 -0.44 -0.48 c-0.2 0.08 -0.12 0.36 -0.12 0.52 c-0.04 1.4 0.2 13.48 0.2 15.4 c0 0.96 -0.04 1.12 -0.84 1.12 l-2 0 c-0.52 0 -1.16 -0.04 -1.68 0.04 c-0.4 0 -0.6 -0.12 -0.64 -0.52 l0 -3.16 c0.08 -3.36 0 -23.28 0 -24.76 c0 -1.28 0.36 -1.52 1.64 -1.52 c0.88 -0.04 1.76 -0.04 2.64 -0.04 c0.28 0 0.44 0.04 0.6 0.4 c1.08 2.52 5.68 14.08 6.4 15.48 c0.12 0.28 0.56 1.4 0.8 1.52 l0.04 0 c0.16 -0.16 0.12 -0.96 0.12 -1.2 c0 -0.6 -0.32 -14.64 -0.32 -14.92 c0 -0.4 -0.12 -0.76 0.08 -1.04 c0.12 -0.16 0.64 -0.2 0.84 -0.24 c1.12 -0.08 2.44 0.04 3.56 0 c0.56 0 0.52 0.4 0.64 0.92 z M78.8 14.719999999999999 c0.04 -1.32 0 -2.4 0 -3.68 c0 -1.48 -2.68 -1.32 -3.64 -1.28 c-4.28 0.28 -8.36 3 -10.32 6.72 c-0.56 1.08 -0.96 2.2 -1.24 3.36 c-0.68 2.72 -0.72 5.6 -0.4 8.36 c0.28 2.6 0.96 5.2 2.56 7.28 c2.76 3.64 7.84 4.92 12.2 4.24 c0.2 -0.04 0.4 -0.08 0.56 -0.2 c0.12 -0.08 0.24 -0.24 0.24 -0.4 l0.12 -2.28 c0.04 -0.72 0 -0.68 0 -1.4 c0 -0.96 -2 -0.24 -3.24 -0.24 c-1.2 0 -2.48 -0.04 -3.56 -0.6 c-1.92 -1.08 -3 -3.24 -3.6 -5.28 c-0.68 -2.2 -0.84 -4.56 -0.44 -6.8 c0.48 -2.92 1.88 -6.28 4.96 -7.28 c1.76 -0.6 3.64 -0.4 5.4 -0.2 c0.24 0.04 0.4 -0.12 0.4 -0.32 z M94.88 28.16 c0 1.8 -0.04 5.36 -0.08 5.36 l0 5.44 c0 0.24 -0.04 0.64 0.08 0.88 c0.12 0.28 0.48 0.2 0.72 0.16 c1.16 -0.12 2.32 0.04 3.48 0 c1.28 -0.04 0.88 -2 0.84 -2.8 c-0.16 -1.76 0.04 -15.16 0.04 -19.96 c0 -2.16 -0.08 -6.6 -0.2 -6.8 c-0.2 -0.36 -0.72 -0.44 -1.12 -0.48 c-0.88 -0.16 -1.32 0.08 -2.64 0.08 s-1.4 0.4 -1.4 1.8 l0 1.2 c-0.04 0.96 0.12 7.68 0.12 8.76 c0 0.52 -0.04 0.56 -0.56 0.56 c-1.32 -0.04 -3.16 0.12 -4.52 0 c-1.96 -0.16 -1.52 0 -1.64 -1.8 l0 -0.24 c0 -2.56 0.32 -9.2 0.2 -9.6 c-0.2 -0.6 -0.44 -0.72 -0.96 -0.68 c-1.2 0.08 -2.44 -0.12 -3.64 -0.04 c-0.4 0.04 -0.52 0.16 -0.64 0.56 c-0.04 0.2 -0.08 0.4 -0.08 0.6 c0 1.24 0.08 2.92 0.12 4.16 l-0.12 23.72 c0 1.04 0.92 0.92 2.96 0.92 c1.88 0 2.36 0.44 2.36 -1.8 c0 -1.8 -0.12 -4.08 -0.08 -5.88 c0.04 -1.4 0 -2.76 0 -4.16 c0.04 -0.52 0.16 -0.68 0.64 -0.68 c1.76 -0.04 3.68 0 5.44 0 c0.56 0 0.68 0.08 0.68 0.72 z M109.52 29.68 c-0.12 -4.56 -0.08 -9.4 -0.04 -13.92 c0 -1.4 -0.08 -2.92 -0.08 -4.32 c0 -1.52 -0.6 -1.44 -1.4 -1.48 c-1.16 -0.04 -1.68 -0.04 -2.84 -0.04 c-0.76 -0.04 -1.08 0.16 -1.08 0.92 c0 3.92 -0.12 15 -0.08 16.6 s0.2 8.88 0.12 10.48 c-0.04 0.56 0 1.12 0.04 1.68 c0.04 0.2 0.16 0.4 0.48 0.4 c1.32 -0.08 2.56 -0.08 3.88 -0.12 c0.48 -0.04 0.88 -0.16 1.08 -0.68 c0.04 -0.28 -0.08 -7.6 -0.08 -9.52 z M119.03999999999999 32.76 c0 -1.4 -0.2 -5.2 -0.16 -6 c0 -0.12 0.08 -0.28 0.12 -0.28 c0.08 0 0.24 0.08 0.28 0.12 c1.28 1.68 7.28 13.32 8 13.36 c0.2 0.04 0.4 0.04 0.6 0.04 c1.36 -0.08 2.56 0 3.92 0 c1.4 0 0.48 -1.36 0.24 -1.72 c-0.36 -0.52 -5.12 -9.04 -5.4 -9.56 c-0.8 -1.36 -1.48 -2.84 -2.28 -4.16 c-0.08 -0.16 -0.16 -0.4 -0.12 -0.56 c0.08 -0.48 0.2 -0.92 0.4 -1.36 c0.96 -1.88 1.96 -3.8 3.12 -5.6 c1.28 -2.04 2 -3.32 3.04 -5.16 c0.24 -0.44 0.4 -0.92 0.56 -1.44 c0.04 -0.2 -0.12 -0.4 -0.36 -0.4 c-0.76 -0.04 -3.52 0 -4.4 0 c-0.4 0 -0.8 0.08 -1 0.44 c-0.52 1 -5.88 10.8 -6.4 11.68 c-0.04 0.08 -0.16 0.12 -0.28 0.12 c0 0 -0.08 -0.12 -0.08 -0.2 c-0.04 -2.24 0.36 -9.56 0.28 -11.04 c-0.04 -0.88 -0.2 -0.96 -1.08 -1 c-0.96 -0.04 -2.28 -0.04 -3.24 -0.04 c-0.88 0 -0.96 0.48 -1.08 1.12 c-0.04 0.12 -0.04 3.88 -0.04 5.56 c0 2.44 -0.2 17.72 0.08 22.56 c0 0.48 0.12 0.76 0.52 0.76 c1.08 -0.08 2.68 0 3.76 0 c0.76 0 0.88 -0.08 0.88 -1.36 c0 -1.72 0.16 -3.28 0.16 -5.4 c0 -0.16 -0.04 -0.32 -0.04 -0.48 z M136.56 16.56 c0 4.04 0.04 8.12 0.12 12.12 c0.04 2.44 0 5.2 1.16 7.44 c1.48 2.88 4.76 4.16 7.92 3.96 c2.16 -0.16 4.16 -0.72 5.72 -2.32 c2.64 -2.84 2.12 -7.28 2.16 -10.92 c0.08 -5.24 0.2 -10.12 0.2 -15.4 c0 -0.88 -0.28 -1.36 -1.16 -1.4 c-1.08 -0.04 -2.16 0 -3.24 0.08 c-0.44 0 -0.8 0.4 -0.8 0.88 c0.04 3.84 0.12 7.72 0.08 11.6 c-0.04 3.32 0.4 7 -0.84 10.16 c-0.48 1.16 -1.56 2.04 -2.84 2.04 c-3.2 -0.08 -3.08 -3.88 -3.2 -6.12 c-0.24 -4.88 0.12 -9.88 0.24 -14.76 c0 -0.92 0 -1.84 0.04 -2.76 c0.04 -0.48 0.12 -1.08 -0.52 -1.12 l-0.72 0 c-1 0.08 -2 -0.04 -3 0 c-0.96 0.08 -1.28 0.36 -1.28 1.32 c0 1.72 -0.04 3.48 -0.04 5.2 z M174.88 10.920000000000002 c0.12 0.56 0.04 27.2 0.04 27.88 c0 1.2 -0.44 1.16 -1.24 1.16 c-1.2 0 -2.88 0.2 -3.24 -0.2 c-0.32 -0.28 -6.24 -14.56 -7.08 -16.36 c-0.08 -0.16 -0.28 -0.56 -0.44 -0.48 c-0.2 0.08 -0.12 0.36 -0.12 0.52 c-0.04 1.4 0.2 13.48 0.2 15.4 c0 0.96 -0.04 1.12 -0.84 1.12 l-2 0 c-0.52 0 -1.16 -0.04 -1.68 0.04 c-0.4 0 -0.6 -0.12 -0.64 -0.52 l0 -3.16 c0.08 -3.36 0 -23.28 0 -24.76 c0 -1.28 0.36 -1.52 1.64 -1.52 c0.88 -0.04 1.76 -0.04 2.64 -0.04 c0.28 0 0.44 0.04 0.6 0.4 c1.08 2.52 5.68 14.08 6.4 15.48 c0.12 0.28 0.56 1.4 0.8 1.52 l0.04 0 c0.16 -0.16 0.12 -0.96 0.12 -1.2 c0 -0.6 -0.32 -14.64 -0.32 -14.92 c0 -0.4 -0.12 -0.76 0.08 -1.04 c0.12 -0.16 0.64 -0.2 0.84 -0.24 c1.12 -0.08 2.44 0.04 3.56 0 c0.56 0 0.52 0.4 0.64 0.92 z M200.04000000000002 17.36 c0.84 2.48 1.04 5.16 1.04 7.8 c0 2.2 -0.4 4.32 -0.96 6.44 c-0.72 2.52 -1.92 4.8 -4.08 6.28 c-1.6 1.16 -3.28 1.92 -5.24 2.12 c-0.28 0 -0.52 0.04 -0.8 0.04 c-0.24 0 -0.48 -0.04 -0.76 -0.04 c-1.96 -0.2 -3.64 -0.96 -5.28 -2.12 c-2.12 -1.48 -3.36 -3.76 -4.04 -6.28 c-0.6 -2.12 -0.96 -4.24 -0.96 -6.44 c0 -2.64 0.2 -5.32 1.04 -7.8 c1.48 -4.28 5.56 -7.32 10 -7.4 c4.44 0.08 8.52 3.12 10.04 7.4 z M196.16 28.08 c0.4 -2.44 0.24 -4.92 -0.24 -7.36 c-0.48 -2.2 -1.44 -4.36 -3.28 -5.68 c-0.32 -0.24 -0.68 -0.44 -1.04 -0.56 c-0.52 -0.24 -1.08 -0.32 -1.6 -0.32 s-1.04 0.08 -1.56 0.32 c-0.4 0.12 -0.72 0.32 -1.04 0.56 c-1.88 1.32 -2.84 3.48 -3.28 5.68 c-0.48 2.44 -0.64 4.92 -0.24 7.36 c0.4 2.2 1.2 5.16 3.28 6.28 c0.88 0.48 1.84 0.8 2.84 0.84 c1 -0.04 2 -0.36 2.88 -0.84 c2.08 -1.12 2.88 -4.08 3.28 -6.28 z M210.52 32.76 c0 -1.4 -0.2 -5.2 -0.16 -6 c0 -0.12 0.08 -0.28 0.12 -0.28 c0.08 0 0.24 0.08 0.28 0.12 c1.28 1.68 7.28 13.32 8 13.36 c0.2 0.04 0.4 0.04 0.6 0.04 c1.36 -0.08 2.56 0 3.92 0 c1.4 0 0.48 -1.36 0.24 -1.72 c-0.36 -0.52 -5.12 -9.04 -5.4 -9.56 c-0.8 -1.36 -1.48 -2.84 -2.28 -4.16 c-0.08 -0.16 -0.16 -0.4 -0.12 -0.56 c0.08 -0.48 0.2 -0.92 0.4 -1.36 c0.96 -1.88 1.96 -3.8 3.12 -5.6 c1.28 -2.04 2 -3.32 3.04 -5.16 c0.24 -0.44 0.4 -0.92 0.56 -1.44 c0.04 -0.2 -0.12 -0.4 -0.36 -0.4 c-0.76 -0.04 -3.52 0 -4.4 0 c-0.4 0 -0.8 0.08 -1 0.44 c-0.52 1 -5.88 10.8 -6.4 11.68 c-0.04 0.08 -0.16 0.12 -0.28 0.12 c0 0 -0.08 -0.12 -0.08 -0.2 c-0.04 -2.24 0.36 -9.56 0.28 -11.04 c-0.04 -0.88 -0.2 -0.96 -1.08 -1 c-0.96 -0.04 -2.28 -0.04 -3.24 -0.04 c-0.88 0 -0.96 0.48 -1.08 1.12 c-0.04 0.12 -0.04 3.88 -0.04 5.56 c0 2.44 -0.2 17.72 0.08 22.56 c0 0.48 0.12 0.76 0.52 0.76 c1.08 -0.08 2.68 0 3.76 0 c0.76 0 0.88 -0.08 0.88 -1.36 c0 -1.72 0.16 -3.28 0.16 -5.4 c0 -0.16 -0.04 -0.32 -0.04 -0.48 z M231.72000000000003 39.68 c0.12 0.04 0.48 0.04 0.84 0.04 c0.8 0 1.04 -2.88 1.12 -3.48 c0.04 -0.48 0.16 -0.52 0.56 -0.6 c2 -0.24 3 -0.08 5 -0.04 c0.44 0 0.68 0.2 0.8 0.56 l0.28 0.92 c0.24 0.68 0.44 1.52 0.68 2.2 c0.16 0.48 0.2 0.44 0.68 0.44 c0.64 0 2.96 0 3.64 -0.04 c0.92 0 0.28 -1.88 0.16 -2.2 c-0.36 -1.12 -0.44 -2.28 -0.8 -3.4 c-0.16 -0.48 -4.72 -22.12 -4.92 -23.32 c-0.28 -0.72 -0.04 -0.76 -0.68 -0.76 c-1.36 0 -2.8 0.08 -4.2 0 c-0.56 0 -0.52 0.16 -0.6 0.76 c-0.08 0.56 -1.52 6.92 -2.08 9.56 c-0.72 3.32 -1.36 6.52 -2.16 9.8 c-0.28 1.16 -2.2 9.52 -1.96 9.56 c0.12 0.08 0.32 0.04 0.48 0.04 c1 0 1.92 0 3.16 -0.04 z M236.96 30.6 l-0.84 0 c-1.12 0 -1.16 0 -0.88 -1.16 c0.2 -0.88 1.28 -5.64 1.52 -6.8 c0.04 -0.08 0.12 -0.16 0.16 -0.16 c0.08 0 0.16 0.08 0.2 0.12 c0.16 0.48 0.32 1.68 0.48 2.16 c0.36 1.52 0.6 2.8 0.96 4.44 c0.36 1.44 0.2 1.44 -0.52 1.44 c-0.36 0 -0.72 -0.04 -1.08 -0.04 z M257.44 10 l-6.08 0 c-0.52 0 -0.84 0.28 -0.84 0.8 c0 1.56 0.08 1.88 0.08 3.2 c0 0.56 0.44 0.56 2.72 0.56 c1.12 0 4.08 0 4.36 0.04 c0.08 0.04 0.24 0.2 0.24 0.32 c0 0.28 -0.08 0.56 -0.16 0.8 c-0.08 0.16 -0.12 0.32 -0.16 0.48 c-0.12 0.36 -7.68 22.4 -7.76 22.8 c-0.24 0.84 0.6 0.92 1.2 0.92 c1.08 0.04 12.2 0.08 13.28 0.08 c0.52 0 0.72 -0.4 0.72 -0.92 c0 -0.84 0.12 -1.72 0.12 -2.6 c0 -1.72 -1 -1.2 -2.92 -1.2 c-1.64 0 -3.08 -0.04 -4.92 -0.04 c-0.4 0 -0.76 -0.4 -0.64 -0.8 c0.4 -1.8 4.92 -14.8 5.76 -16.92 c0.32 -0.76 3.08 -7.4 1.56 -7.48 c-0.32 -0.04 -0.64 0 -0.96 0 c-1.88 0 -3.72 0 -5.6 -0.04 z M269.20000000000005 31.8 l-0.04 0 c0 1 -0.04 2.04 0 3.08 c0.04 1.28 0.12 2.56 0.2 3.84 c0 0.44 0.12 0.56 0.52 0.64 c0.84 0.2 1.64 0.24 2.48 0.24 c2.16 -0.08 4.32 0.08 6.48 0 c0.88 -0.04 1.28 0.04 2.16 -0.12 c0.8 -0.16 1.08 -0.6 1.08 -1.8 c-0.08 -0.76 -0.04 -1.08 -0.04 -2 c0 -1.32 -0.92 -1.76 -1.72 -1.72 c-0.56 0.04 -3.24 -0.04 -4.32 -0.04 c-1.8 0.04 -1.52 0.28 -1.52 -1.6 c0 -1.52 0.04 -3.48 0.04 -5.04 c0 -0.84 0.08 -1.12 0.88 -1.12 l5 0 c0.8 0.12 1.36 -0.44 1.36 -1.28 s0.08 -0.88 0.08 -1.72 l-0.12 -1.2 c-0.08 -0.68 -0.32 -0.92 -1 -0.92 c-0.44 0 -0.88 0.04 -1.32 0.08 c-1.72 0.12 -2.52 -0.12 -4.2 0 c-0.56 0 -0.64 -0.08 -0.68 -0.6 c-0.16 -1.56 0 -3.28 0.16 -4.84 c0.04 -0.64 0.2 -0.76 0.8 -0.8 l5.64 -0.04 c0.76 -0.08 1 -0.04 0.96 -0.8 c-0.08 -1.16 0.04 -2.36 -0.08 -3.52 c-0.08 -0.64 -0.28 -0.76 -1 -0.76 c-1.2 0.04 -1.48 0.04 -2.68 0.12 c-1.2 0.04 -6 0.04 -7.16 0.04 c-1.68 0 -1.8 -0.12 -1.84 1.92 c-0.08 1.6 -0.04 3.24 -0.04 4.88 c0 2.8 -0.16 12.84 -0.08 15.08 z"></path></g></svg>