<svg width="95" height="106" viewBox="0 0 95 106" class="looka-1j8o68f"><g id="SvgjsG1040" featurekey="symbolGroupContainer" transform="matrix(1,0,0,1,0,0)" fill="#3d84a8"><rect width="95" height="106" rx="8"></rect></g><g id="SvgjsG1041" featurekey="symbolFeature-0" transform="matrix(1.731898652037029,0,0,1.731898652037029,-7.710378432592464,1.1448107837037682)" fill="#ffffff"><title xmlns="http://www.w3.org/2000/svg">learning-learn-knowledge-education-balloon</title><g xmlns="http://www.w3.org/2000/svg"><path d="M43,35V49h-.754A19.95,19.95,0,0,0,33,51.273V40h1a3,3,0,0,0,3-3V35.345A17.974,17.974,0,0,1,40.471,35ZM29,36h6v1a1,1,0,0,1-1,1H30a1,1,0,0,1-1-1Zm3.015-8.135L34.055,31h-4.1Zm-1.183-5.478a1.487,1.487,0,0,1-.1-1.668A1.45,1.45,0,0,1,32,20a1.469,1.469,0,0,1,1.292.759,1.5,1.5,0,0,1-.108,1.682l-1.163,1.772ZM24,22.441V22a8,8,0,1,1,16,0,11.4,11.4,0,0,1-3.849,8.553l-2.939-4.513,1.613-2.458a3.487,3.487,0,0,0,.158-3.895,3.478,3.478,0,1,0-5.778,3.857l1.62,2.49-3.156,4.807A11.489,11.489,0,0,1,24,22.441ZM29,33h6v1H29V33Zm-8,2h2.529A17.974,17.974,0,0,1,27,35.345V37a3,3,0,0,0,3,3h1V51.273A19.95,19.95,0,0,0,21.754,49H21Zm-4,2h2V50a1,1,0,0,0,1,1h1.754a17.95,17.95,0,0,1,5.9,1H17ZM47,52H36.344a17.95,17.95,0,0,1,5.9-1H44a1,1,0,0,0,1-1V36.189l2-.125Z"></path><rect x="31" y="8" width="2" height="2"></rect><rect x="20.394" y="12.394" width="2" height="2" transform="translate(-3.205 19.05) rotate(-45)"></rect><rect x="16" y="23" width="2" height="2"></rect><rect x="46" y="23" width="2" height="2"></rect><rect x="41.607" y="12.394" width="2" height="2" transform="translate(3.008 34.05) rotate(-45)"></rect></g></g></svg>