<svg width="24" height="24" viewBox="0 0 24 24" fill="none" xmlns="http://www.w3.org/2000/svg">
<g clip-path="url(#clip0_304_23572)">
<path d="M1 0.999116L23 22.9991M15 9.33912V3.99912C15.0007 3.25514 14.725 2.53744 14.2264 1.98532C13.7277 1.4332 13.0417 1.08606 12.3015 1.01129C11.5613 0.936521 10.8197 1.13946 10.2207 1.5807C9.62172 2.02195 9.20805 2.67002 9.06 3.39912M17 16.9491C16.0238 17.9455 14.7721 18.6276 13.4056 18.9077C12.0391 19.1879 10.62 19.0533 9.3305 18.5214C8.04096 17.9895 6.93976 17.0844 6.16817 15.9223C5.39658 14.7602 4.98979 13.394 5 11.9991V9.99912M19 9.99912V11.9991C18.9996 12.4116 18.9628 12.8232 18.89 13.2291M12 18.9991V22.9991M8 22.9991H16M9 8.99912V11.9991C9.00052 12.5921 9.17675 13.1716 9.50643 13.6644C9.83611 14.1573 10.3045 14.5414 10.8523 14.7683C11.4002 14.9951 12.0029 15.0545 12.5845 14.939C13.1661 14.8234 13.7005 14.5381 14.12 14.1191L9 8.99912Z" stroke="currentColor" stroke-width="2" stroke-linecap="round" stroke-linejoin="round"/>
</g>
<defs>
<clipPath id="clip0_304_23572">
<rect width="24" height="24" fill="white"/>
</clipPath>
</defs>
</svg>
