<svg width="24" height="24" viewBox="0 0 24 24" fill="none" xmlns="http://www.w3.org/2000/svg">
<path d="M23 4.00154V10.0015M23 10.0015H17M23 10.0015L18.36 5.64154C17.2853 4.56625 15.9556 3.78075 14.4952 3.35831C13.0348 2.93588 11.4911 2.89029 10.0083 3.2258C8.52547 3.56131 7.1518 4.26697 6.01547 5.27696C4.87913 6.28694 4.01717 7.56833 3.51 9.00154M1 20.0015V14.0015M1 14.0015H7M1 14.0015L5.64 18.3615C6.71475 19.4368 8.04437 20.2223 9.50481 20.6448C10.9652 21.0672 12.5089 21.1128 13.9917 20.7773C15.4745 20.4418 16.8482 19.7361 17.9845 18.7261C19.1209 17.7161 19.9828 16.4348 20.49 15.0015" stroke="currentColor" stroke-width="2" stroke-linecap="round" stroke-linejoin="round"/>
</svg>
