<svg width="24" height="24" viewBox="0 0 24 24" fill="none" xmlns="http://www.w3.org/2000/svg">
<path d="M1 4.00154V10.0015M1 10.0015H7M1 10.0015L5.64 5.64154C6.71475 4.56625 8.04437 3.78075 9.50481 3.35831C10.9652 2.93588 12.5089 2.89029 13.9917 3.2258C15.4745 3.56131 16.8482 4.26697 17.9845 5.27696C19.1209 6.28694 19.9828 7.56833 20.49 9.00154M23 20.0015V14.0015M23 14.0015H17M23 14.0015L18.36 18.3615C17.2853 19.4368 15.9556 20.2223 14.4952 20.6448C13.0348 21.0672 11.4911 21.1128 10.0083 20.7773C8.52547 20.4418 7.1518 19.7361 6.01547 18.7261C4.87913 17.7161 4.01717 16.4348 3.51 15.0015" stroke="currentColor" stroke-width="2" stroke-linecap="round" stroke-linejoin="round"/>
</svg>
