<svg width="24" height="24" viewBox="0 0 24 24" fill="none" xmlns="http://www.w3.org/2000/svg">
<path d="M1 3.99848V9.99848M1 9.99848H7M1 9.99848L5.64 5.63848C7.02091 4.2599 8.81245 3.36745 10.7447 3.0956C12.6769 2.82375 14.6451 3.18722 16.3528 4.13125C18.0605 5.07528 19.4152 6.54873 20.2126 8.32958C21.0101 10.1104 21.2072 12.1022 20.7742 14.0048C20.3413 15.9075 19.3017 17.6178 17.8121 18.8782C16.3226 20.1387 14.4637 20.8808 12.5157 20.993C10.5677 21.1051 8.63598 20.5811 7.01166 19.4999C5.38734 18.4187 4.15839 16.8389 3.51 14.9985" stroke="#101828" stroke-width="2" stroke-linecap="round" stroke-linejoin="round"/>
</svg>
