<svg width="24" height="24" viewBox="0 0 24 24" fill="none" xmlns="http://www.w3.org/2000/svg">
<path d="M22.9999 3.99806V9.99806M22.9999 9.99806H16.9999M22.9999 9.99806L18.3699 5.63806C16.9905 4.2578 15.1999 3.36325 13.2678 3.0892C11.3358 2.81516 9.36705 3.17648 7.65823 4.1187C5.94942 5.06092 4.59313 6.53301 3.79374 8.31313C2.99436 10.0932 2.79519 12.085 3.22625 13.9881C3.6573 15.8913 4.69524 17.6028 6.18363 18.8647C7.67203 20.1267 9.53026 20.8707 11.4783 20.9846C13.4263 21.0986 15.3586 20.5764 16.984 19.4966C18.6094 18.4168 19.8399 16.838 20.4899 14.9981" stroke="currentColor" stroke-width="2" stroke-linecap="round" stroke-linejoin="round"/>
</svg>
