<svg width="24" height="24" viewBox="0 0 24 24" fill="none" xmlns="http://www.w3.org/2000/svg">
<g clip-path="url(#clip0_304_23636)">
<path d="M15.9995 16.0014L11.9995 12.0014M11.9995 12.0014L7.99947 16.0014M11.9995 12.0014V21.0014M20.3895 18.3914C21.3648 17.8597 22.1353 17.0183 22.5793 16.0001C23.0234 14.9818 23.1157 13.8447 22.8417 12.7681C22.5677 11.6916 21.943 10.737 21.0661 10.0549C20.1893 9.37283 19.1103 9.00218 17.9995 9.00145H16.7395C16.4368 7.83069 15.8726 6.74378 15.0894 5.82244C14.3062 4.9011 13.3243 4.1693 12.2176 3.68206C11.1108 3.19481 9.90802 2.96481 8.69959 3.00933C7.49116 3.05385 6.30854 3.37175 5.24065 3.93911C4.17276 4.50648 3.24738 5.30855 2.53409 6.28503C1.8208 7.26151 1.33816 8.38699 1.12245 9.57684C0.906742 10.7667 0.963577 11.99 1.28869 13.1547C1.61379 14.3194 2.19871 15.3953 2.99947 16.3014" stroke="currentColor" stroke-width="2" stroke-linecap="round" stroke-linejoin="round"/>
</g>
<defs>
<clipPath id="clip0_304_23636">
<rect width="24" height="24" fill="white"/>
</clipPath>
</defs>
</svg>
